<svg width="108" height="103" viewBox="0 0 108 103" fill="none" xmlns="http://www.w3.org/2000/svg">
<circle cx="2" cy="2" r="2" fill="#402100"/>
<circle cx="2" cy="11" r="2" fill="#402100"/>
<circle cx="2" cy="20" r="2" fill="#402100"/>
<circle cx="2" cy="29" r="2" fill="#402100"/>
<circle cx="2" cy="38" r="2" fill="#402100"/>
<circle cx="2" cy="47" r="2" fill="#402100"/>
<circle cx="2" cy="56" r="2" fill="#402100"/>
<circle cx="2" cy="65" r="2" fill="#402100"/>
<circle cx="2" cy="74" r="2" fill="#402100"/>
<circle cx="2" cy="83" r="2" fill="#402100"/>
<circle cx="2" cy="92" r="2" fill="#402100"/>
<circle cx="2" cy="101" r="2" fill="#402100"/>
<circle cx="10" cy="2" r="2" fill="#402100"/>
<circle cx="10" cy="11" r="2" fill="#402100"/>
<circle cx="10" cy="20" r="2" fill="#402100"/>
<circle cx="10" cy="29" r="2" fill="#402100"/>
<circle cx="10" cy="38" r="2" fill="#402100"/>
<circle cx="10" cy="47" r="2" fill="#402100"/>
<circle cx="10" cy="56" r="2" fill="#402100"/>
<circle cx="10" cy="65" r="2" fill="#402100"/>
<circle cx="10" cy="74" r="2" fill="#402100"/>
<circle cx="10" cy="83" r="2" fill="#402100"/>
<circle cx="10" cy="92" r="2" fill="#402100"/>
<circle cx="10" cy="101" r="2" fill="#402100"/>
<circle cx="18" cy="2" r="2" fill="#402100"/>
<circle cx="18" cy="11" r="2" fill="#402100"/>
<circle cx="18" cy="20" r="2" fill="#402100"/>
<circle cx="18" cy="29" r="2" fill="#402100"/>
<circle cx="18" cy="38" r="2" fill="#402100"/>
<circle cx="18" cy="47" r="2" fill="#402100"/>
<circle cx="18" cy="56" r="2" fill="#402100"/>
<circle cx="18" cy="65" r="2" fill="#402100"/>
<circle cx="18" cy="74" r="2" fill="#402100"/>
<circle cx="18" cy="83" r="2" fill="#402100"/>
<circle cx="18" cy="92" r="2" fill="#402100"/>
<circle cx="18" cy="101" r="2" fill="#402100"/>
<circle cx="26" cy="2" r="2" fill="#402100"/>
<circle cx="26" cy="11" r="2" fill="#402100"/>
<circle cx="26" cy="20" r="2" fill="#402100"/>
<circle cx="26" cy="29" r="2" fill="#402100"/>
<circle cx="26" cy="38" r="2" fill="#402100"/>
<circle cx="26" cy="47" r="2" fill="#402100"/>
<circle cx="26" cy="56" r="2" fill="#402100"/>
<circle cx="26" cy="65" r="2" fill="#402100"/>
<circle cx="26" cy="74" r="2" fill="#402100"/>
<circle cx="26" cy="83" r="2" fill="#402100"/>
<circle cx="26" cy="92" r="2" fill="#402100"/>
<circle cx="26" cy="101" r="2" fill="#402100"/>
<circle cx="34" cy="2" r="2" fill="#402100"/>
<circle cx="34" cy="11" r="2" fill="#402100"/>
<circle cx="34" cy="20" r="2" fill="#402100"/>
<circle cx="34" cy="29" r="2" fill="#402100"/>
<circle cx="34" cy="38" r="2" fill="#402100"/>
<circle cx="34" cy="47" r="2" fill="#402100"/>
<circle cx="34" cy="56" r="2" fill="#402100"/>
<circle cx="34" cy="65" r="2" fill="#402100"/>
<circle cx="34" cy="74" r="2" fill="#402100"/>
<circle cx="34" cy="83" r="2" fill="#402100"/>
<circle cx="34" cy="92" r="2" fill="#402100"/>
<circle cx="34" cy="101" r="2" fill="#402100"/>
<circle cx="42" cy="2" r="2" fill="#402100"/>
<circle cx="42" cy="11" r="2" fill="#402100"/>
<circle cx="42" cy="20" r="2" fill="#402100"/>
<circle cx="42" cy="29" r="2" fill="#402100"/>
<circle cx="42" cy="38" r="2" fill="#402100"/>
<circle cx="42" cy="47" r="2" fill="#402100"/>
<circle cx="42" cy="56" r="2" fill="#402100"/>
<circle cx="42" cy="65" r="2" fill="#402100"/>
<circle cx="42" cy="74" r="2" fill="#402100"/>
<circle cx="42" cy="83" r="2" fill="#402100"/>
<circle cx="42" cy="92" r="2" fill="#402100"/>
<circle cx="42" cy="101" r="2" fill="#402100"/>
<circle cx="50" cy="2" r="2" fill="#402100"/>
<circle cx="50" cy="11" r="2" fill="#402100"/>
<circle cx="50" cy="20" r="2" fill="#402100"/>
<circle cx="50" cy="29" r="2" fill="#402100"/>
<circle cx="50" cy="38" r="2" fill="#402100"/>
<circle cx="50" cy="47" r="2" fill="#402100"/>
<circle cx="50" cy="56" r="2" fill="#402100"/>
<circle cx="50" cy="65" r="2" fill="#402100"/>
<circle cx="50" cy="74" r="2" fill="#402100"/>
<circle cx="50" cy="83" r="2" fill="#402100"/>
<circle cx="50" cy="92" r="2" fill="#402100"/>
<circle cx="50" cy="101" r="2" fill="#402100"/>
<circle cx="58" cy="2" r="2" fill="#402100"/>
<circle cx="58" cy="11" r="2" fill="#402100"/>
<circle cx="58" cy="20" r="2" fill="#402100"/>
<circle cx="58" cy="29" r="2" fill="#402100"/>
<circle cx="58" cy="38" r="2" fill="#402100"/>
<circle cx="58" cy="47" r="2" fill="#402100"/>
<circle cx="58" cy="56" r="2" fill="#402100"/>
<circle cx="58" cy="65" r="2" fill="#402100"/>
<circle cx="58" cy="74" r="2" fill="#402100"/>
<circle cx="58" cy="83" r="2" fill="#402100"/>
<circle cx="58" cy="92" r="2" fill="#402100"/>
<circle cx="58" cy="101" r="2" fill="#402100"/>
<circle cx="66" cy="2" r="2" fill="#402100"/>
<circle cx="66" cy="11" r="2" fill="#402100"/>
<circle cx="66" cy="20" r="2" fill="#402100"/>
<circle cx="66" cy="29" r="2" fill="#402100"/>
<circle cx="66" cy="38" r="2" fill="#402100"/>
<circle cx="66" cy="47" r="2" fill="#402100"/>
<circle cx="66" cy="56" r="2" fill="#402100"/>
<circle cx="66" cy="65" r="2" fill="#402100"/>
<circle cx="66" cy="74" r="2" fill="#402100"/>
<circle cx="66" cy="83" r="2" fill="#402100"/>
<circle cx="66" cy="92" r="2" fill="#402100"/>
<circle cx="66" cy="101" r="2" fill="#402100"/>
<circle cx="74" cy="2" r="2" fill="#402100"/>
<circle cx="74" cy="11" r="2" fill="#402100"/>
<circle cx="74" cy="20" r="2" fill="#402100"/>
<circle cx="74" cy="29" r="2" fill="#402100"/>
<circle cx="74" cy="38" r="2" fill="#402100"/>
<circle cx="74" cy="47" r="2" fill="#402100"/>
<circle cx="74" cy="56" r="2" fill="#402100"/>
<circle cx="74" cy="65" r="2" fill="#402100"/>
<circle cx="74" cy="74" r="2" fill="#402100"/>
<circle cx="74" cy="83" r="2" fill="#402100"/>
<circle cx="74" cy="92" r="2" fill="#402100"/>
<circle cx="74" cy="101" r="2" fill="#402100"/>
<circle cx="82" cy="2" r="2" fill="#402100"/>
<circle cx="82" cy="11" r="2" fill="#402100"/>
<circle cx="82" cy="20" r="2" fill="#402100"/>
<circle cx="82" cy="29" r="2" fill="#402100"/>
<circle cx="82" cy="38" r="2" fill="#402100"/>
<circle cx="82" cy="47" r="2" fill="#402100"/>
<circle cx="82" cy="56" r="2" fill="#402100"/>
<circle cx="82" cy="65" r="2" fill="#402100"/>
<circle cx="82" cy="74" r="2" fill="#402100"/>
<circle cx="82" cy="83" r="2" fill="#402100"/>
<circle cx="82" cy="92" r="2" fill="#402100"/>
<circle cx="82" cy="101" r="2" fill="#402100"/>
<circle cx="90" cy="2" r="2" fill="#402100"/>
<circle cx="90" cy="11" r="2" fill="#402100"/>
<circle cx="90" cy="20" r="2" fill="#402100"/>
<circle cx="90" cy="29" r="2" fill="#402100"/>
<circle cx="90" cy="38" r="2" fill="#402100"/>
<circle cx="90" cy="47" r="2" fill="#402100"/>
<circle cx="90" cy="56" r="2" fill="#402100"/>
<circle cx="90" cy="65" r="2" fill="#402100"/>
<circle cx="90" cy="74" r="2" fill="#402100"/>
<circle cx="90" cy="83" r="2" fill="#402100"/>
<circle cx="90" cy="92" r="2" fill="#402100"/>
<circle cx="90" cy="101" r="2" fill="#402100"/>
<circle cx="98" cy="2" r="2" fill="#402100"/>
<circle cx="98" cy="11" r="2" fill="#402100"/>
<circle cx="98" cy="20" r="2" fill="#402100"/>
<circle cx="98" cy="29" r="2" fill="#402100"/>
<circle cx="98" cy="38" r="2" fill="#402100"/>
<circle cx="98" cy="47" r="2" fill="#402100"/>
<circle cx="98" cy="56" r="2" fill="#402100"/>
<circle cx="98" cy="65" r="2" fill="#402100"/>
<circle cx="98" cy="74" r="2" fill="#402100"/>
<circle cx="98" cy="83" r="2" fill="#402100"/>
<circle cx="98" cy="92" r="2" fill="#402100"/>
<circle cx="98" cy="101" r="2" fill="#402100"/>
<circle cx="106" cy="2" r="2" fill="#402100"/>
<circle cx="106" cy="11" r="2" fill="#402100"/>
<circle cx="106" cy="20" r="2" fill="#402100"/>
<circle cx="106" cy="29" r="2" fill="#402100"/>
<circle cx="106" cy="38" r="2" fill="#402100"/>
<circle cx="106" cy="47" r="2" fill="#402100"/>
<circle cx="106" cy="56" r="2" fill="#402100"/>
<circle cx="106" cy="65" r="2" fill="#402100"/>
<circle cx="106" cy="74" r="2" fill="#402100"/>
<circle cx="106" cy="83" r="2" fill="#402100"/>
<circle cx="106" cy="92" r="2" fill="#402100"/>
<circle cx="106" cy="101" r="2" fill="#402100"/>
</svg>
