<svg width="75" height="71" viewBox="0 0 75 71" fill="none" xmlns="http://www.w3.org/2000/svg">
<rect width="75" height="71" fill="#E5E5E5"/>
<g clip-path="url(#clip0_0_1)">
<rect width="1024" height="3058" transform="translate(-768 -1825)" fill="white"/>
<g filter="url(#filter0_ddd_0_1)">
<path d="M-15.893 -10H90.223C90.223 -10 198 117.52 198 194.307C198 271.094 -31.9284 283.352 -66.357 205.533C-100.786 127.715 -15.893 -10 -15.893 -10Z" fill="white"/>
</g>
<path d="M3.50732 46.5567C3.50732 50.7793 7.17727 54.2019 11.705 54.2019C16.2328 54.2019 19.9027 50.7793 19.9027 46.5567C19.9027 42.3349 16.2328 38.9124 11.705 38.9124C7.17727 38.9124 3.50732 42.3349 3.50732 46.5567ZM16.5897 46.5567C16.5897 49.0692 14.3982 51.113 11.7042 51.113C9.01017 51.113 6.81868 49.0692 6.81868 46.5567C6.81868 44.0443 9.01017 42.0005 11.7042 42.0005C14.3982 42.0005 16.5897 44.0451 16.5897 46.5567Z" fill="#FF8400"/>
<path d="M20.6806 70.109C22.4395 70.109 23.7391 68.5789 23.3364 66.9821L21.5151 58.9947C21.1033 57.363 19.5425 56.21 17.7453 56.21H5.66472C3.8676 56.21 2.30594 57.363 1.8941 58.9947L0.0736811 66.9821C-0.329007 68.5789 0.969745 70.109 2.72942 70.109H20.6806ZM5.12309 59.6838C5.18965 59.4556 5.40929 59.2981 5.66472 59.2981H17.7453C17.9999 59.2981 18.2204 59.4556 18.287 59.6838L19.9593 67.0201H3.45077L5.12309 59.6838Z" fill="#FF8400"/>
<path d="M48.665 0.525879C34.2098 0.525879 22.4503 11.4936 22.4503 24.9737C22.4503 29.3336 23.6784 33.557 26.0146 37.2868L24.3772 41.3216L22.4329 46.113L27.8841 45.4798L33.4036 44.8389C37.8382 47.8022 43.2029 49.4215 48.665 49.4215C63.1193 49.4215 74.8796 38.4546 74.8796 24.9737C74.8796 11.4928 63.1193 0.525879 48.665 0.525879ZM48.665 46.3326C43.2362 46.3326 38.2558 44.5627 34.3313 41.6188L27.4748 42.4149L29.6954 36.9431C27.2135 33.5283 25.7617 29.4097 25.7617 24.9737C25.7617 13.1773 36.0153 3.61483 48.6642 3.61483C61.313 3.61483 71.5666 13.1773 71.5666 24.9737C71.5674 36.7701 61.3139 46.3326 48.665 46.3326Z" fill="#FF8400"/>
<path d="M54.1179 15.1077C53.4023 14.6142 52.5645 14.2527 51.6027 14.023C50.6409 13.7933 49.6009 13.6785 48.4836 13.6785C47.3179 13.6785 46.1872 13.8073 45.0932 14.0657C43.9991 14.3233 42.9899 14.7105 42.0638 15.2257V20.287C42.9657 19.5468 43.9209 18.9951 44.9309 18.6304C45.941 18.2657 46.9144 18.0842 47.8521 18.0842C48.2847 18.0842 48.6782 18.1455 49.0335 18.2689C49.3879 18.3922 49.6883 18.5606 49.9354 18.7732C50.1817 18.9866 50.3714 19.2411 50.5037 19.5383C50.6359 19.8355 50.7017 20.1575 50.7017 20.5051C50.7017 20.9086 50.6418 21.2756 50.5211 21.6069C50.4005 21.9374 50.2208 22.2571 49.9803 22.5652C49.7399 22.8732 49.4487 23.182 49.1059 23.4901C48.7631 23.7981 48.3638 24.1318 47.907 24.491C47.4743 24.827 47.0958 25.1661 46.7713 25.5083C46.4468 25.8504 46.1764 26.2089 45.9601 26.5845C45.7438 26.96 45.5815 27.3612 45.4734 27.7872C45.3652 28.2131 45.3111 28.6841 45.3111 29.1993C45.3111 29.5245 45.3444 29.869 45.4102 30.2337C45.4759 30.5983 45.5691 30.9258 45.6897 31.2175H50.4321C50.2998 31.0267 50.195 30.7915 50.1168 30.5114C50.0386 30.2313 49.9995 29.9566 49.9995 29.6874C49.9995 29.2948 50.0535 28.9448 50.1617 28.636C50.2699 28.3272 50.4288 28.0362 50.6393 27.7615C50.8498 27.4869 51.1143 27.2091 51.433 26.929C51.7517 26.6489 52.1211 26.3463 52.5421 26.0211C53.1669 25.5393 53.7202 25.0714 54.2011 24.6167C54.682 24.1628 55.0847 23.6887 55.4091 23.196C55.7336 22.7025 55.9799 22.1788 56.1488 21.624C56.3168 21.0692 56.4009 20.45 56.4009 19.7656C56.4009 18.6894 56.1995 17.7676 55.7968 16.9994C55.3942 16.2313 54.8334 15.6004 54.1179 15.1077Z" fill="#FF8400"/>
<path d="M48.3205 33.0339C47.3587 33.0339 46.5592 33.2978 45.9227 33.8246C45.2854 34.3515 44.9667 35.0071 44.9667 35.7924C44.9667 36.5543 45.2854 37.2162 45.9227 37.7764C46.56 38.3149 47.3596 38.5834 48.3205 38.5834C49.2815 38.5834 50.0752 38.3196 50.7009 37.7927C51.3141 37.2658 51.6202 36.5986 51.6202 35.7916C51.6202 34.9955 51.3074 34.3398 50.6826 33.8238C50.0577 33.297 49.2707 33.0339 48.3205 33.0339Z" fill="#FF8400"/>
</g>
<defs>
<filter id="filter0_ddd_0_1" x="-93.4393" y="-19.4325" width="310.304" height="305.96" filterUnits="userSpaceOnUse" color-interpolation-filters="sRGB">
<feFlood flood-opacity="0" result="BackgroundImageFix"/>
<feColorMatrix in="SourceAlpha" type="matrix" values="0 0 0 0 0 0 0 0 0 0 0 0 0 0 0 0 0 0 127 0" result="hardAlpha"/>
<feOffset/>
<feGaussianBlur stdDeviation="0.471626"/>
<feColorMatrix type="matrix" values="0 0 0 0 0 0 0 0 0 0 0 0 0 0 0 0 0 0 0.04 0"/>
<feBlend mode="normal" in2="BackgroundImageFix" result="effect1_dropShadow_0_1"/>
<feColorMatrix in="SourceAlpha" type="matrix" values="0 0 0 0 0 0 0 0 0 0 0 0 0 0 0 0 0 0 127 0" result="hardAlpha"/>
<feOffset dy="1.88651"/>
<feGaussianBlur stdDeviation="2.82976"/>
<feColorMatrix type="matrix" values="0 0 0 0 0 0 0 0 0 0 0 0 0 0 0 0 0 0 0.04 0"/>
<feBlend mode="normal" in2="effect1_dropShadow_0_1" result="effect2_dropShadow_0_1"/>
<feColorMatrix in="SourceAlpha" type="matrix" values="0 0 0 0 0 0 0 0 0 0 0 0 0 0 0 0 0 0 127 0" result="hardAlpha"/>
<feOffset dy="9.43253"/>
<feGaussianBlur stdDeviation="9.43253"/>
<feColorMatrix type="matrix" values="0 0 0 0 0 0 0 0 0 0 0 0 0 0 0 0 0 0 0.04 0"/>
<feBlend mode="normal" in2="effect2_dropShadow_0_1" result="effect3_dropShadow_0_1"/>
<feBlend mode="normal" in="SourceGraphic" in2="effect3_dropShadow_0_1" result="shape"/>
</filter>
<clipPath id="clip0_0_1">
<rect width="1024" height="3058" fill="white" transform="translate(-768 -1825)"/>
</clipPath>
</defs>
</svg>
