<svg width="48" height="59" viewBox="0 0 48 59" fill="none" xmlns="http://www.w3.org/2000/svg">
<path d="M23.2089 4.05237C16.5352 4.05237 11.1062 9.11614 11.1062 15.34V22.6504C11.1062 28.8749 16.536 33.9387 23.2089 33.9387C29.8826 33.9387 35.3123 28.8749 35.3123 22.6504V15.34C35.3116 9.11614 29.8826 4.05237 23.2089 4.05237ZM33.4866 22.6504C33.4866 27.9361 28.8759 32.2367 23.2082 32.2367C17.5405 32.2367 12.9305 27.9368 12.9305 22.6504V15.34C12.9305 10.0543 17.5412 5.75436 23.2082 5.75436C28.8752 5.75436 33.4866 10.0543 33.4866 15.34V22.6504Z" fill="#FF8400"/>
<path d="M23.6469 35.7321C10.6076 35.7321 0 45.6247 0 57.7857V58.6367H47.2945V57.7857C47.2945 45.6254 36.6861 35.7321 23.6469 35.7321ZM31.5141 38.8086C29.4438 41.1859 26.3464 42.5815 23.0213 42.5815C19.8976 42.5815 16.9258 41.3166 14.8599 39.1639C17.5507 38.0549 20.5218 37.434 23.6469 37.434C26.4202 37.434 29.0722 37.9242 31.5141 38.8086ZM36.1832 56.9347V52.2917H34.3582V56.9347H12.2932V52.2917H10.4682V56.9347H1.84398C2.1681 49.6128 6.66344 43.2821 13.1634 39.9462C15.5797 42.6748 19.207 44.2835 23.0213 44.2835C27.0699 44.2835 30.8345 42.5141 33.2435 39.5159C40.2193 42.7157 45.1118 49.2846 45.4505 56.9347H36.1832Z" fill="#FF8400"/>
<path d="M8.16504 24.3265C8.66874 24.3265 9.07754 23.9453 9.07754 23.4755V15.34C9.07754 8.07312 15.4169 2.16105 23.2089 2.16105C31.0009 2.16105 37.3402 8.07312 37.3402 15.34V23.4749C37.3402 23.9446 37.749 24.3259 38.2527 24.3259C43.1897 24.3259 44.8505 20.1008 44.8505 18.1735C44.8505 14.9424 42.1641 12.2914 38.7659 12.0456C37.1541 5.42072 30.7929 0.458374 23.2089 0.458374C15.6249 0.458374 9.26369 5.42072 7.65111 12.0456C4.25369 12.2914 1.56802 14.9424 1.56802 18.1735C1.56802 20.1008 3.2295 24.3265 8.16504 24.3265ZM43.0255 18.1735C43.0255 18.9823 42.305 22.0391 39.1652 22.5449V15.34C39.1652 14.8178 39.1353 14.3031 39.0791 13.7946C41.318 14.1615 43.0255 15.9833 43.0255 18.1735ZM7.33868 13.7952C7.28247 14.3031 7.25254 14.8185 7.25254 15.3407V22.5456C4.11426 22.0391 3.39302 18.9829 3.39302 18.1741C3.39302 15.9833 5.10049 14.1615 7.33868 13.7952Z" fill="#FF8400"/>
<path d="M22.319 15.1794H15.1468V16.8814H20.494V25.3914H24.3419V23.6894H22.319V15.1794Z" fill="#FF8400"/>
<path d="M30.8965 15.1794H24.866V16.8813H30.8965V15.1794Z" fill="#FF8400"/>
</svg>
