<svg width="57" height="61" viewBox="0 0 57 61" fill="none" xmlns="http://www.w3.org/2000/svg">
<path d="M55.6944 35.5743L52.1158 30.596C52.0563 30.5123 52.0242 30.4112 52.0242 30.3075C52.0242 30.2038 52.0563 30.1027 52.1158 30.019L55.6563 25.0113C56.0541 24.4467 56.3156 23.7931 56.4195 23.1044C56.5234 22.4156 56.4665 21.7113 56.2537 21.0494C56.0409 20.3876 55.6782 19.7872 55.1954 19.2976C54.7126 18.808 54.1236 18.4433 53.4768 18.2334L47.7664 16.3653C47.6693 16.334 47.5846 16.2714 47.5246 16.1869C47.4647 16.1024 47.4327 16.0004 47.4333 15.8959V9.70477C47.4333 9.00765 47.2721 8.32051 46.9631 7.69993C46.6541 7.07934 46.2061 6.54307 45.6559 6.13526C45.1057 5.72745 44.4691 5.45978 43.7986 5.35429C43.128 5.24879 42.4427 5.30849 41.799 5.52847L36.0886 7.48458C35.9931 7.51847 35.8896 7.51963 35.7935 7.48789C35.6974 7.45614 35.6139 7.39321 35.5556 7.30853L31.977 2.30089C31.582 1.73704 31.0614 1.27855 30.4587 0.963763C29.856 0.648977 29.1888 0.487039 28.5127 0.491487C27.8307 0.485569 27.1574 0.649786 26.5507 0.970047C25.944 1.29031 25.4219 1.75705 25.0293 2.33023L21.5269 7.36722C21.4686 7.45189 21.3851 7.51482 21.289 7.54657C21.1929 7.57831 21.0894 7.57716 20.994 7.54327L15.2835 5.58716C14.6327 5.36629 13.9398 5.30918 13.263 5.42062C12.5862 5.53205 11.9454 5.80878 11.3943 6.22755C10.8431 6.64633 10.3979 7.19491 10.0959 7.82721C9.79389 8.45951 9.64398 9.15706 9.65875 9.86126L9.70634 16.0523C9.70695 16.1569 9.67493 16.2589 9.61498 16.3434C9.55503 16.4279 9.4703 16.4904 9.37323 16.5218L3.66279 18.429C3.01135 18.6439 2.41933 19.0156 1.93607 19.5133C1.45281 20.011 1.09232 20.6202 0.884649 21.2901C0.676977 21.96 0.62814 22.6713 0.74221 23.3645C0.85628 24.0577 1.12995 24.7129 1.54041 25.2754L5.09992 30.2048C5.15947 30.2886 5.19157 30.3896 5.19157 30.4933C5.19157 30.5971 5.15947 30.6981 5.09992 30.7819L1.55945 35.7895C1.1617 36.3541 0.900134 37.0077 0.796271 37.6965C0.692407 38.3853 0.749219 39.0896 0.962031 39.7514C1.17484 40.4132 1.53757 41.0136 2.02035 41.5032C2.50312 41.9928 3.09215 42.3575 3.73893 42.5674L9.44937 44.4355C9.54644 44.4669 9.63117 44.5294 9.69112 44.6139C9.75107 44.6984 9.78309 44.8004 9.78248 44.905V51.0961C9.78249 51.7932 9.94364 52.4803 10.2527 53.1009C10.5617 53.7215 11.0097 54.2578 11.5599 54.6656C12.1101 55.0734 12.7466 55.3411 13.4172 55.4466C14.0877 55.5521 14.7731 55.4924 15.4168 55.2724L21.1272 53.3163C21.2226 53.2824 21.3262 53.2812 21.4223 53.313C21.5184 53.3447 21.6019 53.4076 21.6602 53.4923L25.2007 58.5C25.5956 59.0638 26.1163 59.5223 26.719 59.8371C27.3217 60.1519 27.9889 60.3138 28.665 60.3094C29.3438 60.3121 30.0133 60.1464 30.6164 59.8263C31.2196 59.5061 31.7386 59.0411 32.1293 58.4706L35.6317 53.4336C35.69 53.349 35.7735 53.286 35.8696 53.2543C35.9657 53.2225 36.0693 53.2237 36.1647 53.2576L41.8751 55.2137C42.5293 55.4463 43.2285 55.5125 43.913 55.4067C44.5975 55.3008 45.2468 55.026 45.8053 54.6059C46.3639 54.1857 46.815 53.6327 47.1201 52.9942C47.4251 52.3557 47.5751 51.6507 47.557 50.9396V44.7485C47.5564 44.6439 47.5884 44.5419 47.6484 44.4574C47.7083 44.3729 47.793 44.3104 47.8901 44.279L53.6006 42.3229C54.252 42.1081 54.844 41.7363 55.3273 41.2386C55.8105 40.7409 56.171 40.1317 56.3787 39.4618C56.5864 38.7919 56.6352 38.0807 56.5211 37.3874C56.4071 36.6942 56.1334 36.039 55.7229 35.4765L55.6944 35.5743ZM53.6006 38.6356C53.5339 38.8673 53.412 39.0782 53.2457 39.2491C53.0795 39.4199 52.8743 39.5452 52.6488 39.6137L46.9384 41.5698C46.2642 41.7913 45.6768 42.229 45.2623 42.8187C44.8478 43.4083 44.628 44.1189 44.6352 44.8463V51.0374C44.6391 51.2742 44.5873 51.5085 44.484 51.7203C44.3806 51.932 44.229 52.1149 44.0419 52.2533C43.8549 52.3917 43.638 52.4815 43.4098 52.515C43.1817 52.5485 42.949 52.5248 42.7317 52.4458L37.0213 50.4897C36.362 50.2811 35.6559 50.2886 35.001 50.5112C34.3461 50.7338 33.7748 51.1604 33.3666 51.7318L29.8642 56.8079C29.735 56.9986 29.5627 57.1543 29.3621 57.2616C29.1616 57.3689 28.9387 57.4247 28.7126 57.4241C28.4846 57.428 28.2592 57.3737 28.0565 57.2662C27.8539 57.1587 27.6804 57.0012 27.5515 56.8079L24.011 51.8003C23.5945 51.2121 23.0064 50.7755 22.3322 50.5539C21.6579 50.3323 20.9325 50.3372 20.2611 50.5679L14.5507 52.524C14.337 52.5998 14.1086 52.6216 13.885 52.5875C13.6614 52.5535 13.449 52.4646 13.2658 52.3284C13.083 52.1913 12.9343 52.0118 12.8317 51.8045C12.7292 51.5971 12.6757 51.3678 12.6758 51.1352V44.905C12.6766 44.1776 12.452 43.4688 12.0345 42.8814C11.6169 42.294 11.0281 41.8586 10.3535 41.6383L4.64308 39.7702C4.41681 39.7034 4.21076 39.5786 4.04429 39.4075C3.87781 39.2364 3.75636 39.0247 3.69134 38.7921C3.62345 38.5792 3.60359 38.3532 3.63327 38.1312C3.66295 37.9092 3.74139 37.6971 3.86266 37.5109L7.40313 32.5032C7.82283 31.9182 8.04926 31.2104 8.04926 30.4836C8.04926 29.7567 7.82283 29.0489 7.40313 28.4639L3.86266 23.4856C3.72984 23.298 3.64187 23.081 3.60587 22.8521C3.56986 22.6231 3.58684 22.3886 3.65542 22.1677C3.72401 21.9467 3.84227 21.7454 4.00063 21.5802C4.15899 21.4149 4.353 21.2903 4.56694 21.2165L10.2774 19.2604C10.9516 19.0388 11.539 18.6012 11.9535 18.0115C12.368 17.4219 12.5878 16.7113 12.5806 15.9839L12.514 9.86126C12.51 9.62443 12.5619 9.39013 12.6652 9.1784C12.7685 8.96666 12.9202 8.78377 13.1072 8.64537C13.2943 8.50697 13.5111 8.41717 13.7393 8.38365C13.9675 8.35012 14.2002 8.37387 14.4174 8.45286L20.1279 10.409C20.8061 10.6234 21.5333 10.609 22.2029 10.3679C22.8726 10.1267 23.4495 9.67156 23.8492 9.06903L27.3516 4.04183C27.4808 3.85113 27.6531 3.69546 27.8536 3.58815C28.0542 3.48083 28.2771 3.42508 28.5032 3.42565C28.727 3.41627 28.9497 3.46302 29.152 3.56185C29.3543 3.66068 29.5301 3.80863 29.6643 3.99293L33.2048 9.00057C33.6213 9.58879 34.2093 10.0254 34.8836 10.247C35.5579 10.4685 36.2833 10.4636 36.9546 10.2329L42.6651 8.27681C42.8793 8.20077 43.1084 8.17973 43.3323 8.21553C43.5563 8.25133 43.7683 8.34288 43.9499 8.4822C44.1337 8.61606 44.2834 8.79356 44.3861 8.99961C44.4888 9.20565 44.5416 9.43414 44.54 9.66565V15.8567C44.5391 16.5842 44.7637 17.293 45.1813 17.8803C45.5989 18.4677 46.1876 18.9031 46.8622 19.1234L52.5727 20.9915C52.799 21.0583 53.005 21.1832 53.1715 21.3542C53.338 21.5253 53.4594 21.7371 53.5244 21.9696C53.5985 22.1881 53.6216 22.4214 53.5918 22.6507C53.5621 22.8801 53.4803 23.099 53.3531 23.29L49.8126 28.2976C49.3929 28.8827 49.1665 29.5904 49.1665 30.3173C49.1665 31.0441 49.3929 31.7519 49.8126 32.337L53.3531 37.3153C53.4945 37.4988 53.5908 37.7146 53.6339 37.9444C53.677 38.1742 53.6655 38.4113 53.6006 38.6356ZM37.8778 23.554H35.1463C35.6888 19.1626 33.9471 16.9228 32.767 15.935C32.1089 15.3311 31.3041 14.9214 30.4379 14.7492C29.5717 14.5771 28.6763 14.6488 27.8465 14.9569C27.4304 15.1453 27.0761 15.4532 26.8262 15.8436C26.5763 16.234 26.4415 16.6903 26.4379 17.1576C26.4379 17.715 26.4379 18.2628 26.4855 18.7909C26.6647 20.227 26.5047 21.6863 26.0191 23.0454C25.6956 23.7692 24.1157 24.6103 22.7166 25.1678C22.4505 24.9374 22.1129 24.8124 21.7649 24.8157H15.531C15.1524 24.8157 14.7892 24.9703 14.5215 25.2454C14.2538 25.5206 14.1034 25.8937 14.1034 26.2828V39.2909C14.1034 39.68 14.2538 40.0532 14.5215 40.3283C14.7892 40.6035 15.1524 40.758 15.531 40.758H21.7839C22.133 40.7577 22.4705 40.6294 22.7356 40.3961L25.3053 41.3742C26.8432 41.9622 28.4708 42.2636 30.1116 42.2642H37.6589C38.6988 42.2696 39.7053 41.8869 40.4913 41.1871C41.2772 40.4873 41.7893 39.5181 41.9322 38.4596L43.1124 29.6571C43.2135 28.8924 43.1532 28.1143 42.9358 27.3757C42.7184 26.637 42.3489 25.9551 41.8524 25.3762C41.3558 24.7973 40.7439 24.3349 40.0581 24.0205C39.3723 23.7061 38.6287 23.547 37.8778 23.554ZM20.3563 37.8239H16.9586V27.7499H20.3563V37.8239ZM40.2286 29.2561L39.058 38.0586C39.0099 38.4104 38.8401 38.7325 38.5796 38.9661C38.3192 39.1996 37.9855 39.3288 37.6399 39.3301H30.0926C28.7928 39.3322 27.5032 39.0937 26.2856 38.6259L23.2115 37.462V28.1118C24.858 27.5347 27.7037 26.2828 28.6079 24.2778C29.3057 22.499 29.5577 20.5686 29.3407 18.6638C29.3407 18.3019 29.3407 17.9302 29.3407 17.5488C29.9365 17.5533 30.512 17.7712 30.9682 18.1649C31.7962 18.8398 33.043 20.5807 32.0817 24.6495C32.0272 24.8632 32.0203 25.0869 32.0617 25.3038C32.103 25.5206 32.1915 25.7251 32.3205 25.9019C32.4496 26.0787 32.6158 26.2233 32.8068 26.3248C32.9978 26.4263 33.2087 26.4822 33.4237 26.4882H37.8778C38.2169 26.4854 38.5524 26.5583 38.8614 26.7018C39.1703 26.8453 39.4452 27.0561 39.6671 27.3195C39.8901 27.5822 40.0557 27.8911 40.1525 28.2251C40.2494 28.5592 40.2753 28.9108 40.2286 29.2561Z" fill="#FF8400"/>
</svg>
