<svg width="41" height="52" viewBox="0 0 41 52" fill="none" xmlns="http://www.w3.org/2000/svg">
<path d="M15.8387 34.8572C15.6319 35.064 15.5098 35.3569 15.5098 35.6547C15.5098 35.9566 15.6278 36.2409 15.8432 36.4562C16.0554 36.6684 16.3397 36.7851 16.6411 36.7851C16.9425 36.7851 17.2264 36.668 17.4426 36.4562C17.6548 36.2404 17.7715 35.9566 17.7715 35.6547C17.7715 35.3573 17.6544 35.064 17.4426 34.8572C17.0196 34.4342 16.2622 34.4342 15.8387 34.8572Z" fill="#FF8400"/>
<path d="M36.897 7.52328H29.5895V1.57107C29.5895 0.945253 29.0826 0.438385 28.4577 0.438385H4.82506C4.19925 0.438385 3.69238 0.945253 3.69238 1.57107V31.3276V39.6722C3.69238 40.298 4.19925 40.8049 4.82506 40.8049H24.8173C27.4485 40.8049 29.5895 38.6648 29.5895 36.0345V31.3276V23.4362H36.897C37.5219 23.4362 38.0288 22.9294 38.0288 22.3035V8.6546C38.0283 8.03014 37.5214 7.52328 36.897 7.52328ZM24.8173 38.5409H5.95684V32.4603H27.3255V36.0349C27.3251 37.4163 26.2005 38.5409 24.8173 38.5409ZM27.3251 30.1963H5.95684V2.70285H27.3255V7.52328H14.556C13.9302 7.52328 13.4233 8.03014 13.4233 8.65506V22.3035C13.4233 22.9294 13.9302 23.4362 14.556 23.4362H18.0784V25.3547C18.0784 25.7417 18.2762 26.1017 18.6029 26.3094C18.7876 26.4274 18.9989 26.4865 19.2111 26.4865C19.3738 26.4865 19.5387 26.4513 19.6905 26.3801L25.9788 23.4367H27.3251V30.1963ZM35.7643 21.1718H25.7274C25.5612 21.1718 25.3976 21.2078 25.2471 21.2781L20.3429 23.5741V22.3035C20.3429 21.6786 19.836 21.1718 19.2111 21.1718H15.6878V9.78729H35.7643V21.1718Z" fill="#FF8400"/>
</svg>
