<svg width="47" height="59" viewBox="0 0 47 59" fill="none" xmlns="http://www.w3.org/2000/svg">
<path d="M24.2409 21.4392L24.5843 16.6398C24.5957 16.4616 24.5589 16.2837 24.4778 16.1247C24.3967 15.9656 24.2743 15.8314 24.1234 15.736C23.7757 15.532 23.4016 15.3769 23.0116 15.275C22.0474 15.0407 21.0297 15.1933 20.1766 15.7001C19.3234 16.207 18.7027 17.0277 18.4472 17.9865C18.0394 19.5945 17.9565 21.2677 18.2032 22.9082C18.45 24.5486 19.0215 26.1233 19.8843 27.5402C20.756 28.9881 21.9089 30.2468 23.275 31.2418C24.6411 32.2369 26.1927 32.9482 27.8382 33.3339C28.1341 33.4057 28.4375 33.4421 28.742 33.4423C29.583 33.4425 30.4001 33.1628 31.0645 32.6473C31.7289 32.1318 32.2029 31.4098 32.4116 30.5952C32.458 30.3896 32.4912 30.1813 32.5111 29.9715C32.5291 29.7791 32.5291 29.5855 32.5111 29.3931C32.4963 29.2134 32.4331 29.0411 32.328 28.8947C32.2229 28.7482 32.08 28.633 31.9145 28.5615L27.4405 26.6544H27.2959C27.1137 26.6062 26.9215 26.6111 26.742 26.6688C26.5626 26.7265 26.4035 26.8344 26.2836 26.9798C26.2836 26.9798 26.0486 27.251 25.8226 27.5312C25.0293 26.9153 24.3527 26.1622 23.8251 25.3077C23.2983 24.4604 22.9336 23.5225 22.7495 22.5419L23.4545 22.3883C23.6732 22.3416 23.8698 22.2225 24.0125 22.0503C24.1552 21.8781 24.2356 21.6628 24.2409 21.4392Z" fill="#FF8400"/>
<path d="M30.0529 15.5642L29.6914 17.0375C30.4913 17.2325 31.2445 17.5846 31.9071 18.0734C32.5697 18.5622 33.1284 19.1779 33.5508 19.8846C33.9705 20.5753 34.2496 21.342 34.3721 22.1408C34.4946 22.9396 34.4582 23.7548 34.2649 24.5394L35.7381 24.901C35.9802 23.9168 36.025 22.8945 35.8698 21.8929C35.7146 20.8914 35.3625 19.9305 34.8339 19.0658C34.3053 18.2011 33.6107 17.4496 32.7901 16.8548C31.9695 16.26 31.0392 15.8337 30.0529 15.6004V15.5642Z" fill="#FF8400"/>
<path d="M30.7305 35.7019C30.7305 35.8218 30.6829 35.9367 30.5981 36.0215C30.5134 36.1062 30.3984 36.1539 30.2785 36.1539H9.49008C9.37023 36.1539 9.25528 36.1062 9.17053 36.0215C9.08577 35.9367 9.03816 35.8218 9.03816 35.7019V9.49039C9.03816 9.37053 9.08577 9.25558 9.17053 9.17083C9.25528 9.08608 9.37023 9.03846 9.49008 9.03846H30.2785C30.3984 9.03846 30.5134 9.08608 30.5981 9.17083C30.6829 9.25558 30.7305 9.37053 30.7305 9.49039V9.87L31.2276 9.9875C31.6795 10.096 32.1314 10.2225 32.5382 10.3671V7.23077C32.5382 5.79248 31.9668 4.4131 30.9498 3.39608C29.9328 2.37905 28.5534 1.80769 27.1151 1.80769H12.6535C11.2153 1.80769 9.83588 2.37905 8.81885 3.39608C7.80183 4.4131 7.23047 5.79248 7.23047 7.23077V39.7692C7.23047 41.2075 7.80183 42.5869 8.81885 43.6039C9.83588 44.621 11.2153 45.1923 12.6535 45.1923H27.1151C28.5534 45.1923 29.9328 44.621 30.9498 43.6039C31.9668 42.5869 32.5382 41.2075 32.5382 39.7692V33.7587C32.0136 34.2476 31.3999 34.6312 30.7305 34.8885V35.7019ZM17.6247 5.42308H22.1439C22.2638 5.42308 22.3787 5.47069 22.4635 5.55544C22.5482 5.6402 22.5959 5.75514 22.5959 5.875C22.5959 5.99486 22.5482 6.10981 22.4635 6.19456C22.3787 6.27931 22.2638 6.32692 22.1439 6.32692H17.6247C17.5048 6.32692 17.3899 6.27931 17.3051 6.19456C17.2204 6.10981 17.1728 5.99486 17.1728 5.875C17.1728 5.75514 17.2204 5.6402 17.3051 5.55544C17.3899 5.47069 17.5048 5.42308 17.6247 5.42308ZM22.0716 40.7815C21.9746 41.1753 21.7717 41.535 21.485 41.8218C21.1982 42.1086 20.8385 42.3114 20.4447 42.4085C20.071 42.4951 19.6814 42.4852 19.3126 42.3796C18.9437 42.274 18.6079 42.0763 18.3366 41.805C18.0653 41.5338 17.8676 41.1979 17.762 40.8291C17.6565 40.4603 17.6465 40.0706 17.7332 39.6969C17.8302 39.3032 18.0331 38.9434 18.3198 38.6567C18.6066 38.3699 18.9663 38.167 19.3601 38.07C19.7338 37.9834 20.1234 37.9933 20.4922 38.0989C20.861 38.2045 21.1969 38.4022 21.4682 38.6735C21.7394 38.9447 21.9372 39.2806 22.0427 39.6494C22.1483 40.0182 22.1583 40.4078 22.0716 40.7815Z" fill="#FF8400"/>
<path d="M38.1246 17.0375C37.3202 15.7129 36.2588 14.5627 35.003 13.6546C33.7472 12.7465 32.3224 12.0989 30.8125 11.75L30.46 13.2323C31.7672 13.5406 32.9999 14.1063 34.0862 14.8961C35.1725 15.686 36.0906 16.6844 36.7869 17.8329C37.4669 18.9293 37.9211 20.1504 38.1229 21.4247C38.3247 22.6989 38.2699 24.0006 37.9619 25.2535L39.4352 25.624C39.8001 24.1777 39.8721 22.673 39.647 21.1984C39.422 19.7238 38.9043 18.3091 38.1246 17.0375Z" fill="#FF8400"/>
</svg>
