<svg width="20" height="20" viewBox="0 0 20 20" fill="none" xmlns="http://www.w3.org/2000/svg">
<path d="M10 0.399902C4.69802 0.399902 0.400024 4.6979 0.400024 9.9999C0.400024 15.3019 4.69802 19.5999 10 19.5999C15.302 19.5999 19.6 15.3019 19.6 9.9999C19.6 4.6979 15.302 0.399902 10 0.399902ZM13.905 8.2639C13.909 8.3459 13.91 8.4279 13.91 8.5079C13.91 11.0079 12.009 13.8889 8.53102 13.8889C7.50332 13.8906 6.49699 13.5954 5.63302 13.0389C5.78002 13.0569 5.93102 13.0639 6.08402 13.0639C6.97002 13.0639 7.78503 12.7629 8.43202 12.2549C8.03774 12.2472 7.6557 12.1166 7.33914 11.8814C7.02258 11.6462 6.78727 11.3182 6.66602 10.9429C6.94918 10.9967 7.24087 10.9855 7.51902 10.9099C7.09107 10.8234 6.70622 10.5915 6.42973 10.2536C6.15324 9.91566 6.00213 9.49252 6.00202 9.0559V9.0329C6.25702 9.1739 6.54902 9.2599 6.85902 9.2699C6.45782 9.00283 6.17381 8.59257 6.06507 8.12303C5.95633 7.6535 6.03108 7.16015 6.27402 6.7439C6.74898 7.3279 7.34128 7.80565 8.01259 8.14621C8.6839 8.48678 9.41925 8.68256 10.171 8.7209C10.0754 8.31521 10.1166 7.88931 10.288 7.50941C10.4595 7.12951 10.7516 6.81689 11.1191 6.62017C11.4865 6.42344 11.9087 6.35363 12.3199 6.42157C12.7311 6.48952 13.1084 6.69143 13.393 6.9959C13.8162 6.91218 14.222 6.75696 14.593 6.5369C14.452 6.97504 14.1567 7.34708 13.762 7.5839C14.1369 7.53875 14.5029 7.43798 14.848 7.2849C14.5945 7.6648 14.2752 7.99634 13.905 8.2639Z" fill="black"/>
</svg>
