<svg width="44" height="54" viewBox="0 0 44 54" fill="none" xmlns="http://www.w3.org/2000/svg">
<path d="M21.6095 0C12.5396 0 5.16113 7.37876 5.16113 16.4483C5.16113 24.9823 12.6395 37.0953 21.6007 43.2C30.562 37.0953 38.0402 24.9824 38.0402 16.4483C38.0402 7.37876 30.6693 0 21.6095 0ZM21.6141 30.3036C13.8661 30.3036 7.56261 24.0003 7.56261 16.2524C7.56261 8.51901 13.8661 2.2275 21.6141 2.2275C29.3475 2.2275 35.6388 8.51901 35.6388 16.2524C35.6388 24.0003 29.3475 30.3036 21.6141 30.3036Z" fill="#FF8400"/>
<path d="M15.2842 13.2046V23.2832H19.2323V17.5579C19.2323 17.4487 19.3207 17.3603 19.43 17.3603H23.7731C23.8821 17.3603 23.9708 17.4487 23.9708 17.5579V23.2832H27.9191V13.2046L21.6013 11.054L15.2842 13.2046ZM22.9836 14.3989C22.9836 15.161 22.3633 15.7809 21.6013 15.7809C20.8393 15.7809 20.2197 15.161 20.2197 14.3989C20.2197 13.6369 20.8393 13.0171 21.6013 13.0171C22.3633 13.0171 22.9836 13.6369 22.9836 14.3989Z" fill="#FF8400"/>
<path d="M27.5238 8.27881H25.9443V9.71512L27.5238 10.3873V8.27881Z" fill="#FF8400"/>
<path d="M21.601 8.29593L12.5195 12.1605V13.7284L21.5375 10.6584C21.5786 10.6445 21.6234 10.6445 21.6649 10.6584L30.6824 13.7284V12.1605L21.601 8.29593Z" fill="#FF8400"/>
</svg>
